<?xml version="1.0" encoding="UTF-8" standalone="no"?>
<!DOCTYPE svg PUBLIC "-//W3C//DTD SVG 1.1//EN"
 "http://www.w3.org/Graphics/SVG/1.1/DTD/svg11.dtd">
<!-- Generated by graphviz version 2.40.1 (20161225.0304)
 -->
<!-- Title: TBI_flow Pages: 1 -->
<svg width="350pt" height="539pt"
 viewBox="0.00 0.00 350.00 539.20" xmlns="http://www.w3.org/2000/svg" xmlns:xlink="http://www.w3.org/1999/xlink">
<g id="graph0" class="graph" transform="scale(1 1) rotate(0) translate(4 535.2)">
<title>TBI_flow</title>
<polygon fill="#ffffff" stroke="transparent" points="-4,4 -4,-535.2 346,-535.2 346,4 -4,4"/>
<!-- A -->
<g id="node1" class="node">
<title>A</title>
<path fill="none" stroke="#000000" d="M204,-531.1005C204,-531.1005 12,-531.1005 12,-531.1005 6,-531.1005 0,-525.1005 0,-519.1005 0,-519.1005 0,-506.4995 0,-506.4995 0,-500.4995 6,-494.4995 12,-494.4995 12,-494.4995 204,-494.4995 204,-494.4995 210,-494.4995 216,-500.4995 216,-506.4995 216,-506.4995 216,-519.1005 216,-519.1005 216,-525.1005 210,-531.1005 204,-531.1005"/>
<text text-anchor="middle" x="108" y="-516.4" font-family="Times New Roman" font-size="12.00" fill="#000000">Trauma registry 2012–2023</text>
<text text-anchor="middle" x="108" y="-502" font-family="Times New Roman" font-size="12.00" fill="#000000">n = 11864</text>
</g>
<!-- J1 -->
<!-- A&#45;&gt;J1 -->
<g id="edge1" class="edge">
<title>A&#45;&gt;J1</title>
<path fill="none" stroke="#000000" d="M108,-494.4295C108,-473.537 108,-442.0429 108,-440.0949"/>
</g>
<!-- B -->
<g id="node2" class="node">
<title>B</title>
<path fill="none" stroke="#000000" d="M204,-385.5005C204,-385.5005 12,-385.5005 12,-385.5005 6,-385.5005 0,-379.5005 0,-373.5005 0,-373.5005 0,-360.8995 0,-360.8995 0,-354.8995 6,-348.8995 12,-348.8995 12,-348.8995 204,-348.8995 204,-348.8995 210,-348.8995 216,-354.8995 216,-360.8995 216,-360.8995 216,-373.5005 216,-373.5005 216,-379.5005 210,-385.5005 204,-385.5005"/>
<text text-anchor="middle" x="108" y="-370.8" font-family="Times New Roman" font-size="12.00" fill="#000000">Identified TBI using AIS 1xxxxx.x</text>
<text text-anchor="middle" x="108" y="-356.4" font-family="Times New Roman" font-size="12.00" fill="#000000">n = 11639</text>
</g>
<!-- J2 -->
<!-- B&#45;&gt;J2 -->
<g id="edge3" class="edge">
<title>B&#45;&gt;J2</title>
<path fill="none" stroke="#000000" d="M108,-348.6453C108,-325.751 108,-289.5494 108,-287.3092"/>
</g>
<!-- C -->
<g id="node3" class="node">
<title>C</title>
<path fill="none" stroke="#000000" d="M204,-225.7004C204,-225.7004 12,-225.7004 12,-225.7004 6,-225.7004 0,-219.7004 0,-213.7004 0,-213.7004 0,-186.2996 0,-186.2996 0,-180.2996 6,-174.2996 12,-174.2996 12,-174.2996 204,-174.2996 204,-174.2996 210,-174.2996 216,-180.2996 216,-186.2996 216,-186.2996 216,-213.7004 216,-213.7004 216,-219.7004 210,-225.7004 204,-225.7004"/>
<text text-anchor="middle" x="108" y="-210.8" font-family="Times New Roman" font-size="12.00" fill="#000000">Eligible adult TBI patients</text>
<text text-anchor="middle" x="108" y="-196.4" font-family="Times New Roman" font-size="12.00" fill="#000000">with OFI outcome</text>
<text text-anchor="middle" x="108" y="-182" font-family="Times New Roman" font-size="12.00" fill="#000000">n = 6026</text>
</g>
<!-- J3 -->
<!-- C&#45;&gt;J3 -->
<g id="edge5" class="edge">
<title>C&#45;&gt;J3</title>
<path fill="none" stroke="#000000" d="M108,-174.2471C108,-151.5914 108,-121.9215 108,-120.0892"/>
</g>
<!-- D -->
<g id="node4" class="node">
<title>D</title>
<path fill="none" stroke="#000000" d="M204,-65.4012C204,-65.4012 12,-65.4012 12,-65.4012 6,-65.4012 0,-59.4012 0,-53.4012 0,-53.4012 0,-12.1988 0,-12.1988 0,-6.1988 6,-.1988 12,-.1988 12,-.1988 204,-.1988 204,-.1988 210,-.1988 216,-6.1988 216,-12.1988 216,-12.1988 216,-53.4012 216,-53.4012 216,-59.4012 210,-65.4012 204,-65.4012"/>
<text text-anchor="middle" x="108" y="-50.8" font-family="Times New Roman" font-size="12.00" fill="#000000">Included (final analytic cohort)</text>
<text text-anchor="middle" x="108" y="-36.4" font-family="Times New Roman" font-size="12.00" fill="#000000">n = 1152 adult TBI patients</text>
<text text-anchor="middle" x="108" y="-22" font-family="Times New Roman" font-size="12.00" fill="#000000">&#45; OFI: 888 (77.1%)</text>
<text text-anchor="middle" x="108" y="-7.6" font-family="Times New Roman" font-size="12.00" fill="#000000">&#45; No OFI: 264</text>
</g>
<!-- E1 -->
<g id="node5" class="node">
<title>E1</title>
<path fill="none" stroke="#000000" d="M330,-458.3005C330,-458.3005 138,-458.3005 138,-458.3005 132,-458.3005 126,-452.3005 126,-446.3005 126,-446.3005 126,-433.6995 126,-433.6995 126,-427.6995 132,-421.6995 138,-421.6995 138,-421.6995 330,-421.6995 330,-421.6995 336,-421.6995 342,-427.6995 342,-433.6995 342,-433.6995 342,-446.3005 342,-446.3005 342,-452.3005 336,-458.3005 330,-458.3005"/>
<text text-anchor="middle" x="234" y="-443.6" font-family="Times New Roman" font-size="12.00" fill="#000000">Excluded (n = 225):</text>
<text text-anchor="middle" x="234" y="-429.2" font-family="Times New Roman" font-size="12.00" fill="#000000">&#45; No TBI according to AIS code</text>
</g>
<!-- E2 -->
<g id="node6" class="node">
<title>E2</title>
<path fill="none" stroke="#000000" d="M330,-312.9004C330,-312.9004 138,-312.9004 138,-312.9004 132,-312.9004 126,-306.9004 126,-300.9004 126,-300.9004 126,-273.4996 126,-273.4996 126,-267.4996 132,-261.4996 138,-261.4996 138,-261.4996 330,-261.4996 330,-261.4996 336,-261.4996 342,-267.4996 342,-273.4996 342,-273.4996 342,-300.9004 342,-300.9004 342,-306.9004 336,-312.9004 330,-312.9004"/>
<text text-anchor="middle" x="234" y="-298" font-family="Times New Roman" font-size="12.00" fill="#000000">Excluded (n = 5613):</text>
<text text-anchor="middle" x="234" y="-283.6" font-family="Times New Roman" font-size="12.00" fill="#000000">&#45; Age &lt; 18 years: 771</text>
<text text-anchor="middle" x="234" y="-269.2" font-family="Times New Roman" font-size="12.00" fill="#000000">&#45; No OFI outcome: 4842</text>
</g>
<!-- E3 -->
<g id="node7" class="node">
<title>E3</title>
<path fill="none" stroke="#000000" d="M330,-138.3005C330,-138.3005 138,-138.3005 138,-138.3005 132,-138.3005 126,-132.3005 126,-126.3005 126,-126.3005 126,-113.6995 126,-113.6995 126,-107.6995 132,-101.6995 138,-101.6995 138,-101.6995 330,-101.6995 330,-101.6995 336,-101.6995 342,-107.6995 342,-113.6995 342,-113.6995 342,-126.3005 342,-126.3005 342,-132.3005 336,-138.3005 330,-138.3005"/>
<text text-anchor="middle" x="234" y="-123.6" font-family="Times New Roman" font-size="12.00" fill="#000000">Excluded: missing data</text>
<text text-anchor="middle" x="234" y="-109.2" font-family="Times New Roman" font-size="12.00" fill="#000000">in covariates (n = 4874)</text>
</g>
<!-- J1&#45;&gt;B -->
<g id="edge2" class="edge">
<title>J1&#45;&gt;B</title>
<path fill="none" stroke="#000000" d="M108,-439.9472C108,-439.9472 108,-395.8179 108,-395.8179"/>
<polygon fill="#000000" stroke="#000000" points="111.5001,-395.8178 108,-385.8179 104.5001,-395.8179 111.5001,-395.8178"/>
</g>
<!-- J1&#45;&gt;E1 -->
<g id="edge7" class="edge">
<title>J1&#45;&gt;E1</title>
<path fill="none" stroke="#000000" d="M108.0913,-440C108.0913,-440 115.8396,-440 115.8396,-440"/>
<polygon fill="#000000" stroke="#000000" points="115.8397,-443.5001 125.8396,-440 115.8396,-436.5001 115.8397,-443.5001"/>
</g>
<!-- J2&#45;&gt;C -->
<g id="edge4" class="edge">
<title>J2&#45;&gt;C</title>
<path fill="none" stroke="#000000" d="M108,-287.1368C108,-287.1368 108,-235.9415 108,-235.9415"/>
<polygon fill="#000000" stroke="#000000" points="111.5001,-235.9415 108,-225.9415 104.5001,-235.9416 111.5001,-235.9415"/>
</g>
<!-- J2&#45;&gt;E2 -->
<g id="edge8" class="edge">
<title>J2&#45;&gt;E2</title>
<path fill="none" stroke="#000000" d="M108.0913,-287C108.0913,-287 115.8396,-287 115.8396,-287"/>
<polygon fill="#000000" stroke="#000000" points="115.8397,-290.5001 125.8396,-287 115.8396,-283.5001 115.8397,-290.5001"/>
</g>
<!-- J3&#45;&gt;D -->
<g id="edge6" class="edge">
<title>J3&#45;&gt;D</title>
<path fill="none" stroke="#000000" d="M108,-119.9368C108,-119.9368 108,-75.4251 108,-75.4251"/>
<polygon fill="#000000" stroke="#000000" points="111.5001,-75.425 108,-65.4251 104.5001,-75.4251 111.5001,-75.425"/>
</g>
<!-- J3&#45;&gt;E3 -->
<g id="edge9" class="edge">
<title>J3&#45;&gt;E3</title>
<path fill="none" stroke="#000000" d="M108.0913,-119C108.0913,-119 115.8396,-119 115.8396,-119"/>
<polygon fill="#000000" stroke="#000000" points="115.8397,-122.5001 125.8396,-119 115.8396,-115.5001 115.8397,-122.5001"/>
</g>
</g>
</svg>
